<svg xmlns="http://www.w3.org/2000/svg" viewBox="0 0 385 385"><path d="M347.602 63.186c-38.771-11.403-78.92-17.185-119.333-17.185s-80.563 5.782-119.333 17.185l-37.399 11v117.813H50V169h5v-30H15v30h5v22.999H0v55h30v-25h41.536v37.813l37.399 11a423.387 423.387 0 0 0 29.298 7.491v30.698H115v30h230v-30h-26.697v-30.698a423.269 423.269 0 0 0 29.299-7.491l37.398-11V74.185l-37.398-10.999zM213.269 257.702a392.585 392.585 0 0 1-45.035-4.334V80.628a392.585 392.585 0 0 1 45.035-4.334v181.408zm30-181.408a392.546 392.546 0 0 1 45.034 4.334v172.74a392.814 392.814 0 0 1-45.034 4.334V76.294zM117.4 242.029l-15.864-4.666V96.633l15.864-4.666a393.7 393.7 0 0 1 20.833-5.508v161.079a394.68 394.68 0 0 1-20.833-5.509zm170.903 66.97h-120.07v-25.287a422.913 422.913 0 0 0 120.069 0v25.287zM355 237.363l-15.863 4.666a393.48 393.48 0 0 1-20.834 5.508V86.458a392.525 392.525 0 0 1 20.834 5.509L355 96.633v140.73z"/></svg>