<svg xmlns="http://www.w3.org/2000/svg" width="440" height="440"><path d="M439.9 111.711a6.553 6.553 0 0 0-3.77-4.85L274.576 34.147a6.554 6.554 0 0 0-7.04 1.07L220 77.293l-47.536-42.076a6.554 6.554 0 0 0-7.039-1.07L3.869 106.861a6.56 6.56 0 0 0-1.876 10.692l51.033 49.502-28.774 50.806a6.56 6.56 0 0 0 2.457 8.931l27.964 15.96v65.271a6.558 6.558 0 0 0 3.274 5.678l158.768 91.85a6.566 6.566 0 0 0 3.286.882 6.553 6.553 0 0 0 3.146-.812c-.002.004-.008.01-.009.014l158.915-91.933a6.558 6.558 0 0 0 3.274-5.678v-65.271l27.966-15.96a6.559 6.559 0 0 0 2.455-8.931l-28.772-50.806 51.031-49.502a6.56 6.56 0 0 0 1.893-5.843zM278.612 213.567l-52.052-30.151V96.697l138.129 69.444-86.077 47.426zM75.311 166.142l138.131-69.445v86.719l-52.054 30.151-86.077-47.425zm-57.248-51.281l148.879-67.008 41.454 36.691-145.943 73.374-44.39-43.057zm20.829 103.778l24.854-43.887 146.41 80.665-32.483 42.427-138.781-79.205zM213.44 388.497L67.793 304.239v-53.998l108.353 61.839a6.562 6.562 0 0 0 8.462-1.71l28.833-37.659-.001 115.786zM220 245.861l-45.196-24.901L220 194.78l45.196 26.18L220 245.861zm152.206 58.378L226.56 388.497V272.71l28.833 37.659a6.557 6.557 0 0 0 8.462 1.71l108.351-61.839v53.999zm28.903-85.6l-138.781 79.204-32.484-42.427 146.411-80.665 24.854 43.888zm-23.561-60.721L231.604 84.544l41.452-36.691 148.881 67.008-44.389 43.057z"/></svg>