<?xml version="1.0" encoding="iso-8859-1"?>
<!-- Generator: Adobe Illustrator 19.0.0, SVG Export Plug-In . SVG Version: 6.00 Build 0)  -->
<svg version="1.1" id="Capa_1" xmlns="http://www.w3.org/2000/svg" xmlns:xlink="http://www.w3.org/1999/xlink" x="0px" y="0px"
	 viewBox="0 0 385 385" style="enable-background:new 0 0 385 385;" xml:space="preserve">
<path id="XMLID_243_" d="M347.602,63.186c-38.771-11.403-78.92-17.185-119.333-17.185s-80.563,5.782-119.333,17.185l-37.399,11
	v117.813H50v-22.999h5v-30H15v30h5v22.999H0v55h30v-25h41.536v37.813l37.399,11c9.686,2.849,19.458,5.346,29.298,7.491v30.698H115
	v30h230v-30h-26.697v-30.698c9.841-2.145,19.613-4.642,29.299-7.491l37.398-11V74.185L347.602,63.186z M213.269,257.702
	c-15.097-0.576-30.13-2.029-45.035-4.334V80.628c14.905-2.305,29.938-3.758,45.035-4.334V257.702z M243.269,76.294
	c15.097,0.576,30.13,2.029,45.034,4.334v172.74c-14.905,2.304-29.938,3.758-45.034,4.334V76.294z M117.4,242.029l-15.864-4.666
	V96.633l15.864-4.666c6.9-2.029,13.847-3.863,20.833-5.508v161.079C131.247,245.892,124.3,244.058,117.4,242.029z M288.303,308.999
	H168.233v-25.287c19.855,2.847,39.912,4.283,60.035,4.283c20.123,0,40.18-1.436,60.034-4.283V308.999z M355,237.363l-15.863,4.666
	c-6.9,2.029-13.847,3.863-20.834,5.508V86.458c6.987,1.645,13.934,3.479,20.834,5.509L355,96.633V237.363z"/>
<g>
</g>
<g>
</g>
<g>
</g>
<g>
</g>
<g>
</g>
<g>
</g>
<g>
</g>
<g>
</g>
<g>
</g>
<g>
</g>
<g>
</g>
<g>
</g>
<g>
</g>
<g>
</g>
<g>
</g>
</svg>
