<?xml version="1.0" encoding="iso-8859-1"?>
<!-- Generator: Adobe Illustrator 16.0.0, SVG Export Plug-In . SVG Version: 6.00 Build 0)  -->
<!DOCTYPE svg PUBLIC "-//W3C//DTD SVG 1.1//EN" "http://www.w3.org/Graphics/SVG/1.1/DTD/svg11.dtd">
<svg version="1.1" id="Capa_1" xmlns="http://www.w3.org/2000/svg" xmlns:xlink="http://www.w3.org/1999/xlink" x="0px" y="0px"
	 width="46.059px" height="46.059px" viewBox="0 0 46.059 46.059" style="enable-background:new 0 0 46.059 46.059;"
	 xml:space="preserve">
<g>
	<g>
		<g>
			<path d="M27.75,0h-3.191v4.283h6.191C29.858,2.527,28.848,1.123,27.75,0z"/>
			<path d="M24.558,46.059h2.788c1.254-1.125,2.403-2.737,3.403-4.705h-6.191V46.059z"/>
			<path d="M11.436,22.818c0,5.778,0.96,11.164,2.547,15.446h7.486V7.372h-7.486C12.395,11.654,11.436,17.039,11.436,22.818z"/>
			<path d="M18.714,46.059h2.754v-4.705h-6.158C16.31,43.318,17.46,44.934,18.714,46.059z"/>
			<path d="M14.36,0h-1.04c-1.369,0-2.681,0.547-3.637,1.526C8.856,2.373,8.081,3.3,7.359,4.283h4.562
				C12.644,2.668,13.462,1.264,14.36,0z"/>
			<path d="M15.311,4.283h6.158V0h-3.158C17.212,1.123,16.2,2.527,15.311,4.283z"/>
			<path d="M7.061,41.354c0.79,1.123,1.651,2.195,2.576,3.147c0.957,0.985,2.272,1.558,3.648,1.558h1.357
				c-1.01-1.334-1.924-2.948-2.722-4.704L7.061,41.354L7.061,41.354z"/>
			<path d="M8.38,22.818c0-5.758,0.857-11.023,2.347-15.446h-5.29c-2.414,4.423-3.83,9.825-3.83,15.654
				c0,5.649,1.329,10.885,3.606,15.238h5.514C9.237,33.911,8.38,28.576,8.38,22.818z"/>
			<path d="M38.701,4.283c-0.722-0.983-1.498-1.91-2.326-2.757C35.421,0.547,34.107,0,32.738,0h-1.039
				c0.897,1.264,1.715,2.668,2.438,4.283H38.701z"/>
			<path d="M40.623,7.372h-5.291c1.49,4.423,2.349,9.688,2.349,15.446c0,5.758-0.857,11.093-2.349,15.446h5.516
				c2.275-4.354,3.604-9.589,3.604-15.238C44.451,17.197,43.037,11.795,40.623,7.372z"/>
			<path d="M34.625,22.818c0-5.779-0.961-11.164-2.547-15.446h-7.521v30.892h7.521C33.664,33.98,34.625,28.598,34.625,22.818z"/>
			<path d="M31.416,46.059h1.358c1.374,0,2.688-0.571,3.647-1.558c0.925-0.952,1.786-2.024,2.575-3.147h-4.859
				C33.34,43.107,32.427,44.725,31.416,46.059z"/>
		</g>
	</g>
</g>
<g>
</g>
<g>
</g>
<g>
</g>
<g>
</g>
<g>
</g>
<g>
</g>
<g>
</g>
<g>
</g>
<g>
</g>
<g>
</g>
<g>
</g>
<g>
</g>
<g>
</g>
<g>
</g>
<g>
</g>
</svg>
