<svg xmlns="http://www.w3.org/2000/svg" width="46.059" height="46.059"><path d="M27.75 0h-3.191v4.283h6.191c-.892-1.756-1.902-3.16-3-4.283zm-3.192 46.059h2.788c1.254-1.125 2.403-2.737 3.403-4.705h-6.191v4.705zM11.436 22.818c0 5.778.96 11.164 2.547 15.446h7.486V7.372h-7.486c-1.588 4.282-2.547 9.667-2.547 15.446zm7.278 23.241h2.754v-4.705H15.31c1 1.964 2.15 3.58 3.404 4.705zM14.36 0h-1.04a5.08 5.08 0 0 0-3.637 1.526 25.838 25.838 0 0 0-2.324 2.757h4.562A24.891 24.891 0 0 1 14.36 0zm.951 4.283h6.158V0h-3.158c-1.099 1.123-2.111 2.527-3 4.283zm-8.25 37.071a25.948 25.948 0 0 0 2.576 3.147 5.1 5.1 0 0 0 3.648 1.558h1.357c-1.01-1.334-1.924-2.948-2.722-4.704l-4.859-.001zM8.38 22.818c0-5.758.857-11.023 2.347-15.446h-5.29c-2.414 4.423-3.83 9.825-3.83 15.654 0 5.649 1.329 10.885 3.606 15.238h5.514c-1.49-4.353-2.347-9.688-2.347-15.446zM38.701 4.283a25.737 25.737 0 0 0-2.326-2.757A5.076 5.076 0 0 0 32.738 0h-1.039a24.955 24.955 0 0 1 2.438 4.283h4.564zm1.922 3.089h-5.291c1.49 4.423 2.349 9.688 2.349 15.446 0 5.758-.857 11.093-2.349 15.446h5.516c2.275-4.354 3.604-9.589 3.604-15.238-.001-5.829-1.415-11.231-3.829-15.654zm-5.998 15.446c0-5.779-.961-11.164-2.547-15.446h-7.521v30.892h7.521c1.586-4.284 2.547-9.666 2.547-15.446zm-3.209 23.241h1.358a5.097 5.097 0 0 0 3.647-1.558 25.847 25.847 0 0 0 2.575-3.147h-4.859c-.797 1.753-1.71 3.371-2.721 4.705z"/></svg>