<svg xmlns="http://www.w3.org/2000/svg" viewBox="0 0 512 512"><path d="M439.652 44.522h-50.087V16.696C389.565 7.473 382.087 0 372.87 0H272.696C263.479 0 256 7.473 256 16.696v27.826H72.348c-9.217 0-16.696 7.473-16.696 16.696s7.479 16.696 16.696 16.696h16.696v111.304h333.913V77.913h16.696c9.217 0 16.696-7.473 16.696-16.696s-7.48-16.695-16.697-16.695zM89.044 222.609h333.913v111.304H89.044zm350.608 256h-16.696V367.304H89.044v111.304H72.348c-9.217 0-16.696 7.473-16.696 16.696 0 9.223 7.479 16.696 16.696 16.696h367.304c9.217 0 16.696-7.473 16.696-16.696 0-9.222-7.479-16.695-16.696-16.695z"/></svg>