<?xml version="1.0" encoding="iso-8859-1"?>
<!-- Generator: Adobe Illustrator 19.0.0, SVG Export Plug-In . SVG Version: 6.00 Build 0)  -->
<svg version="1.1" id="Layer_1" xmlns="http://www.w3.org/2000/svg" xmlns:xlink="http://www.w3.org/1999/xlink" x="0px" y="0px"
	 viewBox="0 0 512 512" style="enable-background:new 0 0 512 512;" xml:space="preserve">
<g>
	<g>
		<path d="M439.652,44.522h-50.087V16.696C389.565,7.473,382.087,0,372.87,0H272.696C263.479,0,256,7.473,256,16.696v27.826H72.348
			c-9.217,0-16.696,7.473-16.696,16.696s7.479,16.696,16.696,16.696h16.696v111.304h333.913V77.913h16.696
			c9.217,0,16.696-7.473,16.696-16.696S448.869,44.522,439.652,44.522z"/>
	</g>
</g>
<g>
	<g>
		<rect x="89.044" y="222.609" width="333.913" height="111.304"/>
	</g>
</g>
<g>
	<g>
		<path d="M439.652,478.609h-16.696V367.304H89.044v111.304H72.348c-9.217,0-16.696,7.473-16.696,16.696
			c0,9.223,7.479,16.696,16.696,16.696h367.304c9.217,0,16.696-7.473,16.696-16.696
			C456.348,486.082,448.869,478.609,439.652,478.609z"/>
	</g>
</g>
<g>
</g>
<g>
</g>
<g>
</g>
<g>
</g>
<g>
</g>
<g>
</g>
<g>
</g>
<g>
</g>
<g>
</g>
<g>
</g>
<g>
</g>
<g>
</g>
<g>
</g>
<g>
</g>
<g>
</g>
</svg>
